<svg width="48" height="48" viewBox="0 0 48 48" fill="none" xmlns="http://www.w3.org/2000/svg">
<rect width="48" height="48" rx="24" fill="#181818"/>
<path d="M37.7657 27.967C38.0329 28.1754 38.0822 28.5636 37.8685 28.8332C37.7451 28.9885 37.5643 29.0702 37.3793 29.0702C37.2477 29.0702 37.1121 29.0253 36.997 28.9354L14.0471 11.0062L13.3976 12.089L12 9H15.2598L14.6925 9.93977L37.7657 27.967Z" fill="white"/>
<path d="M31.3243 27.8486H26.5601V36.0001H31.3243V27.8486Z" fill="white"/>
<path d="M25.1131 23.2397V36.0002H20.3489V23.2397H25.1131ZM23.8717 34.7662V24.4737H21.5944V34.7662H23.8717Z" fill="white"/>
<path d="M18.9389 16.6001H14.1787V36.0002H18.9389V16.6001Z" fill="white"/>
</svg>
