<svg width="343" height="45" viewBox="0 0 343 45" fill="none" xmlns="http://www.w3.org/2000/svg">
<path d="M337.864 19.196V28.844C337.864 29.516 338.02 30.008 338.332 30.32C338.668 30.608 339.22 30.752 339.988 30.752H342.328V35H339.16C334.912 35 332.788 32.936 332.788 28.808V19.196H330.412V15.056H332.788V10.124H337.864V15.056H342.328V19.196H337.864Z" fill="white"/>
<path d="M319.247 14.768C321.623 14.768 323.543 15.524 325.007 17.036C326.471 18.524 327.203 20.612 327.203 23.3V35H322.163V23.984C322.163 22.4 321.767 21.188 320.975 20.348C320.183 19.484 319.103 19.052 317.735 19.052C316.343 19.052 315.239 19.484 314.423 20.348C313.631 21.188 313.235 22.4 313.235 23.984V35H308.195V15.056H313.235V17.54C313.907 16.676 314.759 16.004 315.791 15.524C316.847 15.02 317.999 14.768 319.247 14.768Z" fill="white"/>
<path d="M304.516 24.596C304.516 25.316 304.468 25.964 304.372 26.54H289.792C289.912 27.98 290.416 29.108 291.304 29.924C292.192 30.74 293.284 31.148 294.58 31.148C296.452 31.148 297.784 30.344 298.576 28.736H304.012C303.436 30.656 302.332 32.24 300.7 33.488C299.068 34.712 297.064 35.324 294.688 35.324C292.768 35.324 291.04 34.904 289.504 34.064C287.992 33.2 286.804 31.988 285.94 30.428C285.1 28.868 284.68 27.068 284.68 25.028C284.68 22.964 285.1 21.152 285.94 19.592C286.78 18.032 287.956 16.832 289.468 15.992C290.98 15.152 292.72 14.732 294.688 14.732C296.584 14.732 298.276 15.14 299.764 15.956C301.276 16.772 302.44 17.936 303.256 19.448C304.096 20.936 304.516 22.652 304.516 24.596ZM299.296 23.156C299.272 21.86 298.804 20.828 297.892 20.06C296.98 19.268 295.864 18.872 294.544 18.872C293.296 18.872 292.24 19.256 291.376 20.024C290.536 20.768 290.02 21.812 289.828 23.156H299.296Z" fill="white"/>
<path d="M269.39 14.732C270.878 14.732 272.186 15.032 273.314 15.632C274.442 16.208 275.33 16.964 275.978 17.9V15.056H281.054V35.144C281.054 36.992 280.682 38.636 279.938 40.076C279.194 41.54 278.078 42.692 276.59 43.532C275.102 44.396 273.302 44.828 271.19 44.828C268.358 44.828 266.03 44.168 264.206 42.848C262.406 41.528 261.386 39.728 261.146 37.448H266.15C266.414 38.36 266.978 39.08 267.842 39.608C268.73 40.16 269.798 40.436 271.046 40.436C272.51 40.436 273.698 39.992 274.61 39.104C275.522 38.24 275.978 36.92 275.978 35.144V32.048C275.33 32.984 274.43 33.764 273.278 34.388C272.15 35.012 270.854 35.324 269.39 35.324C267.71 35.324 266.174 34.892 264.782 34.028C263.39 33.164 262.286 31.952 261.47 30.392C260.678 28.808 260.282 26.996 260.282 24.956C260.282 22.94 260.678 21.152 261.47 19.592C262.286 18.032 263.378 16.832 264.746 15.992C266.138 15.152 267.686 14.732 269.39 14.732ZM275.978 25.028C275.978 23.804 275.738 22.76 275.258 21.896C274.778 21.008 274.13 20.336 273.314 19.88C272.498 19.4 271.622 19.16 270.686 19.16C269.75 19.16 268.886 19.388 268.094 19.844C267.302 20.3 266.654 20.972 266.15 21.86C265.67 22.724 265.43 23.756 265.43 24.956C265.43 26.156 265.67 27.212 266.15 28.124C266.654 29.012 267.302 29.696 268.094 30.176C268.91 30.656 269.774 30.896 270.686 30.896C271.622 30.896 272.498 30.668 273.314 30.212C274.13 29.732 274.778 29.06 275.258 28.196C275.738 27.308 275.978 26.252 275.978 25.028Z" fill="white"/>
<path d="M251.216 30.212H241.208L239.552 35H234.26L243.296 9.836H249.164L258.2 35H252.872L251.216 30.212ZM249.848 26.18L246.212 15.668L242.576 26.18H249.848Z" fill="white"/>
<path d="M223.823 35.324C222.191 35.324 220.727 35.036 219.431 34.46C218.135 33.86 217.103 33.056 216.335 32.048C215.591 31.04 215.183 29.924 215.111 28.7H220.187C220.283 29.468 220.655 30.104 221.303 30.608C221.975 31.112 222.803 31.364 223.787 31.364C224.747 31.364 225.491 31.172 226.019 30.788C226.571 30.404 226.847 29.912 226.847 29.312C226.847 28.664 226.511 28.184 225.839 27.872C225.191 27.536 224.147 27.176 222.707 26.792C221.219 26.432 219.995 26.06 219.035 25.676C218.099 25.292 217.283 24.704 216.587 23.912C215.915 23.12 215.579 22.052 215.579 20.708C215.579 19.604 215.891 18.596 216.515 17.684C217.163 16.772 218.075 16.052 219.251 15.524C220.451 14.996 221.855 14.732 223.463 14.732C225.839 14.732 227.735 15.332 229.151 16.532C230.567 17.708 231.347 19.304 231.491 21.32H226.667C226.595 20.528 226.259 19.904 225.659 19.448C225.083 18.968 224.303 18.728 223.319 18.728C222.407 18.728 221.699 18.896 221.195 19.232C220.715 19.568 220.475 20.036 220.475 20.636C220.475 21.308 220.811 21.824 221.483 22.184C222.155 22.52 223.199 22.868 224.615 23.228C226.055 23.588 227.243 23.96 228.179 24.344C229.115 24.728 229.919 25.328 230.591 26.144C231.287 26.936 231.647 27.992 231.671 29.312C231.671 30.464 231.347 31.496 230.699 32.408C230.075 33.32 229.163 34.04 227.963 34.568C226.787 35.072 225.407 35.324 223.823 35.324Z" fill="white"/>
<path d="M206.676 18.152C207.324 17.096 208.164 16.268 209.196 15.668C210.252 15.068 211.452 14.768 212.796 14.768V20.06H211.464C209.88 20.06 208.68 20.432 207.864 21.176C207.072 21.92 206.676 23.216 206.676 25.064V35H201.636V15.056H206.676V18.152Z" fill="white"/>
<path d="M197.958 24.596C197.958 25.316 197.91 25.964 197.814 26.54H183.234C183.354 27.98 183.858 29.108 184.746 29.924C185.634 30.74 186.726 31.148 188.022 31.148C189.894 31.148 191.226 30.344 192.018 28.736H197.454C196.878 30.656 195.774 32.24 194.142 33.488C192.51 34.712 190.506 35.324 188.13 35.324C186.21 35.324 184.482 34.904 182.946 34.064C181.434 33.2 180.246 31.988 179.382 30.428C178.542 28.868 178.122 27.068 178.122 25.028C178.122 22.964 178.542 21.152 179.382 19.592C180.222 18.032 181.398 16.832 182.91 15.992C184.422 15.152 186.162 14.732 188.13 14.732C190.026 14.732 191.718 15.14 193.206 15.956C194.718 16.772 195.882 17.936 196.698 19.448C197.538 20.936 197.958 22.652 197.958 24.596ZM192.738 23.156C192.714 21.86 192.246 20.828 191.334 20.06C190.422 19.268 189.306 18.872 187.986 18.872C186.738 18.872 185.682 19.256 184.818 20.024C183.978 20.768 183.462 21.812 183.27 23.156H192.738Z" fill="white"/>
<path d="M153.723 24.956C153.723 22.94 154.119 21.152 154.911 19.592C155.727 18.032 156.831 16.832 158.223 15.992C159.615 15.152 161.163 14.732 162.867 14.732C164.163 14.732 165.399 15.02 166.575 15.596C167.751 16.148 168.687 16.892 169.383 17.828V8.35999H174.495V35H169.383V32.048C168.759 33.032 167.883 33.824 166.755 34.424C165.627 35.024 164.319 35.324 162.831 35.324C161.151 35.324 159.615 34.892 158.223 34.028C156.831 33.164 155.727 31.952 154.911 30.392C154.119 28.808 153.723 26.996 153.723 24.956ZM169.419 25.028C169.419 23.804 169.179 22.76 168.699 21.896C168.219 21.008 167.571 20.336 166.755 19.88C165.939 19.4 165.063 19.16 164.127 19.16C163.191 19.16 162.327 19.388 161.535 19.844C160.743 20.3 160.095 20.972 159.591 21.86C159.111 22.724 158.871 23.756 158.871 24.956C158.871 26.156 159.111 27.212 159.591 28.124C160.095 29.012 160.743 29.696 161.535 30.176C162.351 30.656 163.215 30.896 164.127 30.896C165.063 30.896 165.939 30.668 166.755 30.212C167.571 29.732 168.219 29.06 168.699 28.196C169.179 27.308 169.419 26.252 169.419 25.028Z" fill="white"/>
<path d="M129.325 24.956C129.325 22.94 129.721 21.152 130.513 19.592C131.329 18.032 132.433 16.832 133.825 15.992C135.217 15.152 136.765 14.732 138.469 14.732C139.765 14.732 141.001 15.02 142.177 15.596C143.353 16.148 144.289 16.892 144.985 17.828V8.35999H150.097V35H144.985V32.048C144.361 33.032 143.485 33.824 142.357 34.424C141.229 35.024 139.921 35.324 138.433 35.324C136.753 35.324 135.217 34.892 133.825 34.028C132.433 33.164 131.329 31.952 130.513 30.392C129.721 28.808 129.325 26.996 129.325 24.956ZM145.021 25.028C145.021 23.804 144.781 22.76 144.301 21.896C143.821 21.008 143.173 20.336 142.357 19.88C141.541 19.4 140.665 19.16 139.729 19.16C138.793 19.16 137.929 19.388 137.137 19.844C136.345 20.3 135.697 20.972 135.193 21.86C134.713 22.724 134.473 23.756 134.473 24.956C134.473 26.156 134.713 27.212 135.193 28.124C135.697 29.012 136.345 29.696 137.137 30.176C137.953 30.656 138.817 30.896 139.729 30.896C140.665 30.896 141.541 30.668 142.357 30.212C143.173 29.732 143.821 29.06 144.301 28.196C144.781 27.308 145.021 26.252 145.021 25.028Z" fill="white"/>
<path d="M104.926 24.956C104.926 22.94 105.322 21.152 106.114 19.592C106.93 18.032 108.022 16.832 109.39 15.992C110.782 15.152 112.33 14.732 114.034 14.732C115.522 14.732 116.818 15.032 117.922 15.632C119.05 16.232 119.95 16.988 120.622 17.9V15.056H125.698V35H120.622V32.084C119.974 33.02 119.074 33.8 117.922 34.424C116.794 35.024 115.486 35.324 113.998 35.324C112.318 35.324 110.782 34.892 109.39 34.028C108.022 33.164 106.93 31.952 106.114 30.392C105.322 28.808 104.926 26.996 104.926 24.956ZM120.622 25.028C120.622 23.804 120.382 22.76 119.902 21.896C119.422 21.008 118.774 20.336 117.958 19.88C117.142 19.4 116.266 19.16 115.33 19.16C114.394 19.16 113.53 19.388 112.738 19.844C111.946 20.3 111.298 20.972 110.794 21.86C110.314 22.724 110.074 23.756 110.074 24.956C110.074 26.156 110.314 27.212 110.794 28.124C111.298 29.012 111.946 29.696 112.738 30.176C113.554 30.656 114.418 30.896 115.33 30.896C116.266 30.896 117.142 30.668 117.958 30.212C118.774 29.732 119.422 29.06 119.902 28.196C120.382 27.308 120.622 26.252 120.622 25.028Z" fill="white"/>
<path d="M93.6534 14.768C95.1654 14.768 96.5094 15.104 97.6854 15.776C98.8614 16.424 99.7734 17.396 100.421 18.692C101.093 19.964 101.429 21.5 101.429 23.3V35H96.3894V23.984C96.3894 22.4 95.9934 21.188 95.2014 20.348C94.4094 19.484 93.3294 19.052 91.9614 19.052C90.5694 19.052 89.4654 19.484 88.6494 20.348C87.8574 21.188 87.4614 22.4 87.4614 23.984V35H82.4214V8.35999H87.4614V17.54C88.1094 16.676 88.9734 16.004 90.0534 15.524C91.1334 15.02 92.3334 14.768 93.6534 14.768Z" fill="white"/>
<path d="M69.1599 35.252C67.4079 35.252 65.8239 34.952 64.4079 34.352C63.0159 33.752 61.9119 32.888 61.0959 31.76C60.2799 30.632 59.8599 29.3 59.8359 27.764H65.2359C65.3079 28.796 65.6679 29.612 66.3159 30.212C66.9879 30.812 67.8999 31.112 69.0519 31.112C70.2279 31.112 71.1519 30.836 71.8239 30.284C72.4959 29.708 72.8319 28.964 72.8319 28.052C72.8319 27.308 72.6039 26.696 72.1479 26.216C71.6919 25.736 71.1159 25.364 70.4199 25.1C69.7479 24.812 68.8119 24.5 67.6119 24.164C65.9799 23.684 64.6479 23.216 63.6159 22.76C62.6079 22.28 61.7319 21.572 60.9879 20.636C60.2679 19.676 59.9079 18.404 59.9079 16.82C59.9079 15.332 60.2799 14.036 61.0239 12.932C61.7679 11.828 62.8119 10.988 64.1559 10.412C65.4999 9.81199 67.0359 9.51199 68.7639 9.51199C71.3559 9.51199 73.4559 10.148 75.0639 11.42C76.6959 12.668 77.5959 14.42 77.7639 16.676H72.2199C72.1719 15.812 71.7999 15.104 71.1039 14.552C70.4319 13.976 69.5319 13.688 68.4039 13.688C67.4199 13.688 66.6279 13.94 66.0279 14.444C65.4519 14.948 65.1639 15.68 65.1639 16.64C65.1639 17.312 65.3799 17.876 65.8119 18.332C66.2679 18.764 66.8199 19.124 67.4679 19.412C68.1399 19.676 69.0759 19.988 70.2759 20.348C71.9079 20.828 73.2399 21.308 74.2719 21.788C75.3039 22.268 76.1919 22.988 76.9359 23.948C77.6799 24.908 78.0519 26.168 78.0519 27.728C78.0519 29.072 77.7039 30.32 77.0079 31.472C76.3119 32.624 75.2919 33.548 73.9479 34.244C72.6039 34.916 71.0079 35.252 69.1599 35.252Z" fill="white"/>
<path d="M20.3089 24.2358V43C19.084 42.933 17.8868 42.7627 16.725 42.499V22.3337L18.2474 21.3587L20.3089 24.2358ZM27.4767 42.192C26.3192 42.5268 25.1216 42.7661 23.8928 42.903V23.7956L27.4767 21.6447V42.192ZM13.141 41.343C11.8804 40.8104 10.6814 40.1612 9.55712 39.4083V26.925L13.141 24.6293V41.343ZM34.6446 38.5466C33.5318 39.4083 32.3315 40.1615 31.0606 40.7943V19.494L34.6446 17.3432V38.5466ZM5.9732 36.3981C4.57809 34.9405 3.38448 33.2881 2.44061 31.4835L3.58742 30.7502L5.9732 29.2217V36.3981ZM41.3761 13.3031C42.4218 15.8346 43 18.6089 43 21.5187C43 26.6391 41.2122 31.341 38.2285 35.0355V15.1924L41.3761 13.3031ZM21.5001 0C29.2167 0 35.9827 4.06964 39.7754 10.1808L21.9165 20.8332L20.3415 18.6498C19.5711 17.5852 18.0977 17.2981 16.9864 18.0145L1.8818 27.7201L1.06981 28.2385C0.375974 26.1241 0 23.8653 0 21.5187C4.92576e-05 9.63426 9.62591 4.93036e-05 21.5001 0Z" fill="#43B980"/>
</svg>
