<svg width="240" height="36" viewBox="0 0 240 36" fill="none" xmlns="http://www.w3.org/2000/svg">
<path d="M236.295 16.464V22.896C236.295 23.344 236.399 23.672 236.607 23.88C236.831 24.072 237.199 24.168 237.711 24.168H239.271V27H237.159C234.327 27 232.911 25.624 232.911 22.872V16.464H231.327V13.704H232.911V10.416H236.295V13.704H239.271V16.464H236.295Z" fill="#1E1E1E"/>
<path d="M223.883 13.5122C225.467 13.5122 226.747 14.0162 227.723 15.0242C228.699 16.0162 229.187 17.4082 229.187 19.2002V27.0002H225.827V19.6562C225.827 18.6002 225.563 17.7922 225.035 17.2322C224.507 16.6562 223.787 16.3682 222.875 16.3682C221.947 16.3682 221.211 16.6562 220.667 17.2322C220.139 17.7922 219.875 18.6002 219.875 19.6562V27.0002H216.515V13.7042H219.875V15.3602C220.323 14.7842 220.891 14.3362 221.579 14.0162C222.283 13.6802 223.051 13.5122 223.883 13.5122Z" fill="#1E1E1E"/>
<path d="M214.063 20.0638C214.063 20.5438 214.031 20.9758 213.967 21.3598H204.247C204.327 22.3198 204.663 23.0718 205.255 23.6158C205.847 24.1598 206.575 24.4318 207.439 24.4318C208.687 24.4318 209.575 23.8958 210.103 22.8238H213.727C213.343 24.1038 212.607 25.1598 211.519 25.9918C210.431 26.8078 209.095 27.2158 207.511 27.2158C206.231 27.2158 205.079 26.9358 204.055 26.3758C203.047 25.7998 202.255 24.9918 201.679 23.9518C201.119 22.9118 200.839 21.7118 200.839 20.3518C200.839 18.9758 201.119 17.7678 201.679 16.7278C202.239 15.6878 203.023 14.8878 204.031 14.3278C205.039 13.7678 206.199 13.4878 207.511 13.4878C208.775 13.4878 209.903 13.7598 210.895 14.3038C211.903 14.8478 212.679 15.6238 213.223 16.6318C213.783 17.6238 214.063 18.7678 214.063 20.0638ZM210.583 19.1038C210.567 18.2398 210.255 17.5518 209.647 17.0398C209.039 16.5118 208.295 16.2478 207.415 16.2478C206.583 16.2478 205.879 16.5038 205.303 17.0158C204.743 17.5118 204.399 18.2078 204.271 19.1038H210.583Z" fill="#1E1E1E"/>
<path d="M190.645 13.4878C191.637 13.4878 192.509 13.6878 193.261 14.0878C194.013 14.4718 194.605 14.9758 195.037 15.5998V13.7038H198.421V27.0958C198.421 28.3278 198.173 29.4238 197.677 30.3838C197.181 31.3598 196.437 32.1278 195.445 32.6878C194.453 33.2638 193.253 33.5518 191.845 33.5518C189.957 33.5518 188.405 33.1118 187.189 32.2318C185.989 31.3518 185.309 30.1518 185.149 28.6318H188.485C188.661 29.2398 189.037 29.7198 189.613 30.0718C190.205 30.4398 190.917 30.6238 191.749 30.6238C192.725 30.6238 193.517 30.3278 194.125 29.7358C194.733 29.1598 195.037 28.2798 195.037 27.0958V25.0318C194.605 25.6558 194.005 26.1758 193.237 26.5918C192.485 27.0078 191.621 27.2158 190.645 27.2158C189.525 27.2158 188.501 26.9278 187.573 26.3518C186.645 25.7758 185.909 24.9678 185.365 23.9278C184.837 22.8718 184.573 21.6638 184.573 20.3038C184.573 18.9598 184.837 17.7678 185.365 16.7278C185.909 15.6878 186.637 14.8878 187.549 14.3278C188.477 13.7678 189.509 13.4878 190.645 13.4878ZM195.037 20.3518C195.037 19.5358 194.877 18.8398 194.557 18.2638C194.237 17.6718 193.805 17.2238 193.261 16.9198C192.717 16.5998 192.133 16.4398 191.509 16.4398C190.885 16.4398 190.309 16.5918 189.781 16.8958C189.253 17.1998 188.821 17.6478 188.485 18.2398C188.165 18.8158 188.005 19.5038 188.005 20.3038C188.005 21.1038 188.165 21.8078 188.485 22.4158C188.821 23.0078 189.253 23.4638 189.781 23.7838C190.325 24.1038 190.901 24.2638 191.509 24.2638C192.133 24.2638 192.717 24.1118 193.261 23.8078C193.805 23.4878 194.237 23.0398 194.557 22.4638C194.877 21.8718 195.037 21.1678 195.037 20.3518Z" fill="#1E1E1E"/>
<path d="M178.53 23.8081H171.858L170.754 27.0001H167.226L173.25 10.2241H177.162L183.186 27.0001H179.634L178.53 23.8081ZM177.618 21.1201L175.194 14.1121L172.77 21.1201H177.618Z" fill="#1E1E1E"/>
<path d="M154.549 27.2158C153.461 27.2158 152.485 27.0238 151.621 26.6398C150.757 26.2398 150.069 25.7038 149.557 25.0318C149.061 24.3598 148.789 23.6158 148.741 22.7998H152.125C152.189 23.3118 152.437 23.7358 152.869 24.0718C153.317 24.4078 153.869 24.5758 154.525 24.5758C155.165 24.5758 155.661 24.4478 156.013 24.1918C156.381 23.9358 156.565 23.6078 156.565 23.2078C156.565 22.7758 156.341 22.4558 155.893 22.2478C155.461 22.0238 154.765 21.7838 153.805 21.5278C152.813 21.2878 151.997 21.0398 151.357 20.7838C150.733 20.5278 150.189 20.1358 149.725 19.6078C149.277 19.0798 149.053 18.3678 149.053 17.4718C149.053 16.7358 149.261 16.0638 149.677 15.4558C150.109 14.8478 150.717 14.3678 151.501 14.0158C152.301 13.6638 153.237 13.4878 154.309 13.4878C155.893 13.4878 157.157 13.8878 158.101 14.6878C159.045 15.4718 159.565 16.5358 159.661 17.8798H156.445C156.397 17.3518 156.173 16.9358 155.773 16.6318C155.389 16.3118 154.869 16.1518 154.213 16.1518C153.605 16.1518 153.133 16.2638 152.797 16.4878C152.477 16.7118 152.317 17.0238 152.317 17.4238C152.317 17.8718 152.541 18.2158 152.989 18.4558C153.437 18.6798 154.133 18.9118 155.077 19.1518C156.037 19.3918 156.829 19.6398 157.453 19.8958C158.077 20.1518 158.613 20.5518 159.061 21.0958C159.525 21.6238 159.765 22.3278 159.781 23.2078C159.781 23.9758 159.565 24.6638 159.133 25.2718C158.717 25.8798 158.109 26.3598 157.309 26.7118C156.525 27.0478 155.605 27.2158 154.549 27.2158Z" fill="#1E1E1E"/>
<path d="M143.118 15.7682C143.55 15.0642 144.11 14.5122 144.798 14.1122C145.502 13.7122 146.302 13.5122 147.198 13.5122V17.0402H146.31C145.254 17.0402 144.454 17.2882 143.91 17.7842C143.382 18.2802 143.118 19.1442 143.118 20.3762V27.0002H139.758V13.7042H143.118V15.7682Z" fill="#1E1E1E"/>
<path d="M137.305 20.0638C137.305 20.5438 137.273 20.9758 137.209 21.3598H127.489C127.569 22.3198 127.905 23.0718 128.497 23.6158C129.089 24.1598 129.817 24.4318 130.681 24.4318C131.929 24.4318 132.817 23.8958 133.345 22.8238H136.969C136.585 24.1038 135.849 25.1598 134.761 25.9918C133.673 26.8078 132.337 27.2158 130.753 27.2158C129.473 27.2158 128.321 26.9358 127.297 26.3758C126.289 25.7998 125.497 24.9918 124.921 23.9518C124.361 22.9118 124.081 21.7118 124.081 20.3518C124.081 18.9758 124.361 17.7678 124.921 16.7278C125.481 15.6878 126.265 14.8878 127.273 14.3278C128.281 13.7678 129.441 13.4878 130.753 13.4878C132.017 13.4878 133.145 13.7598 134.137 14.3038C135.145 14.8478 135.921 15.6238 136.465 16.6318C137.025 17.6238 137.305 18.7678 137.305 20.0638ZM133.825 19.1038C133.809 18.2398 133.497 17.5518 132.889 17.0398C132.281 16.5118 131.537 16.2478 130.657 16.2478C129.825 16.2478 129.121 16.5038 128.545 17.0158C127.985 17.5118 127.641 18.2078 127.513 19.1038H133.825Z" fill="#1E1E1E"/>
<path d="M107.815 20.3042C107.815 18.9602 108.079 17.7682 108.607 16.7282C109.151 15.6882 109.887 14.8882 110.815 14.3282C111.743 13.7682 112.775 13.4882 113.911 13.4882C114.775 13.4882 115.599 13.6802 116.383 14.0642C117.167 14.4322 117.791 14.9282 118.255 15.5522V9.24023H121.663V27.0002H118.255V25.0322C117.839 25.6882 117.255 26.2162 116.503 26.6162C115.751 27.0162 114.879 27.2162 113.887 27.2162C112.767 27.2162 111.743 26.9282 110.815 26.3522C109.887 25.7762 109.151 24.9682 108.607 23.9282C108.079 22.8722 107.815 21.6642 107.815 20.3042ZM118.279 20.3522C118.279 19.5362 118.119 18.8402 117.799 18.2642C117.479 17.6722 117.047 17.2242 116.503 16.9202C115.959 16.6002 115.375 16.4402 114.751 16.4402C114.127 16.4402 113.551 16.5922 113.023 16.8962C112.495 17.2002 112.063 17.6482 111.727 18.2402C111.407 18.8162 111.247 19.5042 111.247 20.3042C111.247 21.1042 111.407 21.8082 111.727 22.4162C112.063 23.0082 112.495 23.4642 113.023 23.7842C113.567 24.1042 114.143 24.2642 114.751 24.2642C115.375 24.2642 115.959 24.1122 116.503 23.8082C117.047 23.4882 117.479 23.0402 117.799 22.4642C118.119 21.8722 118.279 21.1682 118.279 20.3522Z" fill="#1E1E1E"/>
<path d="M91.5498 20.3042C91.5498 18.9602 91.8138 17.7682 92.3418 16.7282C92.8858 15.6882 93.6218 14.8882 94.5498 14.3282C95.4778 13.7682 96.5098 13.4882 97.6458 13.4882C98.5098 13.4882 99.3338 13.6802 100.118 14.0642C100.902 14.4322 101.526 14.9282 101.99 15.5522V9.24023H105.398V27.0002H101.99V25.0322C101.574 25.6882 100.99 26.2162 100.238 26.6162C99.4858 27.0162 98.6138 27.2162 97.6218 27.2162C96.5018 27.2162 95.4778 26.9282 94.5498 26.3522C93.6218 25.7762 92.8858 24.9682 92.3418 23.9282C91.8138 22.8722 91.5498 21.6642 91.5498 20.3042ZM102.014 20.3522C102.014 19.5362 101.854 18.8402 101.534 18.2642C101.214 17.6722 100.782 17.2242 100.238 16.9202C99.6938 16.6002 99.1098 16.4402 98.4858 16.4402C97.8618 16.4402 97.2858 16.5922 96.7578 16.8962C96.2298 17.2002 95.7978 17.6482 95.4618 18.2402C95.1418 18.8162 94.9818 19.5042 94.9818 20.3042C94.9818 21.1042 95.1418 21.8082 95.4618 22.4162C95.7978 23.0082 96.2298 23.4642 96.7578 23.7842C97.3018 24.1042 97.8778 24.2642 98.4858 24.2642C99.1098 24.2642 99.6938 24.1122 100.238 23.8082C100.782 23.4882 101.214 23.0402 101.534 22.4642C101.854 21.8722 102.014 21.1682 102.014 20.3522Z" fill="#1E1E1E"/>
<path d="M75.2842 20.3038C75.2842 18.9598 75.5482 17.7678 76.0762 16.7278C76.6202 15.6878 77.3482 14.8878 78.2602 14.3278C79.1882 13.7678 80.2202 13.4878 81.3562 13.4878C82.3482 13.4878 83.2122 13.6878 83.9482 14.0878C84.7002 14.4878 85.3002 14.9918 85.7482 15.5998V13.7038H89.1322V26.9998H85.7482V25.0558C85.3162 25.6798 84.7162 26.1998 83.9482 26.6158C83.1962 27.0158 82.3242 27.2158 81.3322 27.2158C80.2122 27.2158 79.1882 26.9278 78.2602 26.3518C77.3482 25.7758 76.6202 24.9678 76.0762 23.9278C75.5482 22.8718 75.2842 21.6638 75.2842 20.3038ZM85.7482 20.3518C85.7482 19.5358 85.5882 18.8398 85.2682 18.2638C84.9482 17.6718 84.5162 17.2238 83.9722 16.9198C83.4282 16.5998 82.8442 16.4398 82.2202 16.4398C81.5962 16.4398 81.0202 16.5918 80.4922 16.8958C79.9642 17.1998 79.5322 17.6478 79.1962 18.2398C78.8762 18.8158 78.7162 19.5038 78.7162 20.3038C78.7162 21.1038 78.8762 21.8078 79.1962 22.4158C79.5322 23.0078 79.9642 23.4638 80.4922 23.7838C81.0362 24.1038 81.6122 24.2638 82.2202 24.2638C82.8442 24.2638 83.4282 24.1118 83.9722 23.8078C84.5162 23.4878 84.9482 23.0398 85.2682 22.4638C85.5882 21.8718 85.7482 21.1678 85.7482 20.3518Z" fill="#1E1E1E"/>
<path d="M67.769 13.5122C68.777 13.5122 69.673 13.7362 70.457 14.1842C71.241 14.6162 71.849 15.2642 72.281 16.1282C72.729 16.9762 72.953 18.0002 72.953 19.2002V27.0002H69.593V19.6562C69.593 18.6002 69.329 17.7922 68.801 17.2322C68.273 16.6562 67.553 16.3682 66.641 16.3682C65.713 16.3682 64.977 16.6562 64.433 17.2322C63.905 17.7922 63.641 18.6002 63.641 19.6562V27.0002H60.281V9.24023H63.641V15.3602C64.073 14.7842 64.649 14.3362 65.369 14.0162C66.089 13.6802 66.889 13.5122 67.769 13.5122Z" fill="#1E1E1E"/>
<path d="M51.4401 27.1678C50.2721 27.1678 49.2161 26.9678 48.2721 26.5678C47.3441 26.1678 46.6081 25.5918 46.0641 24.8398C45.5201 24.0878 45.2401 23.1998 45.2241 22.1758H48.8241C48.8721 22.8638 49.1121 23.4078 49.5441 23.8078C49.9921 24.2078 50.6001 24.4078 51.3681 24.4078C52.1521 24.4078 52.7681 24.2238 53.2161 23.8558C53.6641 23.4718 53.8881 22.9758 53.8881 22.3678C53.8881 21.8718 53.7361 21.4638 53.4321 21.1438C53.1281 20.8238 52.7441 20.5758 52.2801 20.3998C51.8321 20.2078 51.2081 19.9998 50.4081 19.7758C49.3201 19.4558 48.4321 19.1438 47.7441 18.8398C47.0721 18.5198 46.4881 18.0478 45.9921 17.4238C45.5121 16.7838 45.2721 15.9358 45.2721 14.8798C45.2721 13.8878 45.5201 13.0238 46.0161 12.2878C46.5121 11.5518 47.2081 10.9918 48.1041 10.6078C49.0001 10.2078 50.0241 10.0078 51.1761 10.0078C52.9041 10.0078 54.3041 10.4318 55.3761 11.2798C56.4641 12.1118 57.0641 13.2798 57.1761 14.7838H53.4801C53.4481 14.2078 53.2001 13.7358 52.7361 13.3678C52.2881 12.9838 51.6881 12.7918 50.9361 12.7918C50.2801 12.7918 49.7521 12.9598 49.3521 13.2958C48.9681 13.6318 48.7761 14.1198 48.7761 14.7598C48.7761 15.2078 48.9201 15.5838 49.2081 15.8878C49.5121 16.1758 49.8801 16.4158 50.3121 16.6078C50.7601 16.7838 51.3841 16.9918 52.1841 17.2318C53.2721 17.5518 54.1601 17.8718 54.8481 18.1918C55.5361 18.5118 56.1281 18.9918 56.6241 19.6318C57.1201 20.2718 57.3681 21.1118 57.3681 22.1518C57.3681 23.0478 57.1361 23.8798 56.6721 24.6478C56.2081 25.4158 55.5281 26.0318 54.6321 26.4958C53.7361 26.9438 52.6721 27.1678 51.4401 27.1678Z" fill="#1E1E1E"/>
<path d="M17 20.2695V35.9629C15.9747 35.9069 14.9725 35.7644 14 35.5439V18.6787L15.2744 17.8633L17 20.2695ZM23 35.2871C22.0311 35.5671 21.0286 35.7673 20 35.8818V19.9014L23 18.1025V35.2871ZM11 34.5771C9.94473 34.1316 8.94113 33.5887 8 32.959V22.5186L11 20.5986V34.5771ZM29 32.2383C28.0685 32.959 27.0638 33.5889 26 34.1182V16.3037L29 14.5049V32.2383ZM5 30.4414C3.83219 29.2224 2.83305 27.8404 2.04297 26.3311L3.00293 25.7178L5 24.4395V30.4414ZM34.6348 11.126C35.5101 13.2432 35.9941 15.5635 35.9941 17.9971C35.9941 22.2795 34.4976 26.2119 32 29.3018V12.7061L34.6348 11.126ZM17.9971 0C24.4565 0 30.1201 3.40363 33.2949 8.51465L18.3457 17.4238L17.0273 15.5977C16.3824 14.7073 15.1491 14.4672 14.2188 15.0664L1.5752 23.1836L0.895508 23.6172C0.314717 21.8488 0 19.9597 0 17.9971C4.12322e-05 8.05758 8.05758 4.12349e-05 17.9971 0Z" fill="#43B980"/>
</svg>
