<svg width="57" height="57" viewBox="0 0 57 57" fill="none" xmlns="http://www.w3.org/2000/svg">
<path d="M11.4005 37.0492C9.03486 37.0492 6.89728 38.0182 5.35821 39.5573C1.99508 42.9204 0 57 0 57C0 57 14.0796 55.0049 17.4427 51.6418C18.9818 50.1027 19.9508 47.9651 19.9508 45.5995C19.9508 40.8684 16.1316 37.0492 11.4005 37.0492ZM13.424 47.6231C12.626 48.4212 7.23929 49.7892 7.23929 49.7892C7.23929 49.7892 8.57884 44.431 9.40538 43.6045C9.8899 43.0629 10.6024 42.7494 11.4005 42.7494C12.968 42.7494 14.2506 44.032 14.2506 45.5995C14.2506 46.3976 13.9371 47.1101 13.424 47.6231ZM43.9488 33.2015C62.0755 15.0748 56.0332 0.966758 56.0332 0.966758C56.0332 0.966758 41.9252 -5.07548 23.7985 13.0512L16.7017 11.6262C14.8491 11.2557 12.911 11.8542 11.543 13.1937L0 24.7652L14.2506 30.8645L26.1355 42.7494L32.2348 57L43.7778 45.457C45.1173 44.1175 45.7158 42.1794 45.3453 40.2983L43.9488 33.2015ZM15.4191 25.1642L9.9754 22.8271L15.5901 17.2124L19.6943 18.0389C18.0697 20.4045 16.6162 22.8841 15.4191 25.1642ZM34.1729 47.0246L31.8358 41.5809C34.1159 40.3838 36.5955 38.9303 38.9326 37.3057L39.7591 41.4099L34.1729 47.0246ZM39.9016 29.1829C36.1394 32.945 30.2682 36.0232 28.3871 36.9637L20.0363 28.6129C20.9483 26.7603 24.0265 20.8891 27.8171 17.0984C41.1556 3.75987 51.2735 5.72645 51.2735 5.72645C51.2735 5.72645 53.2401 15.8444 39.9016 29.1829ZM37.0515 25.6487C40.1866 25.6487 42.7517 23.0836 42.7517 19.9485C42.7517 16.8134 40.1866 14.2483 37.0515 14.2483C33.9164 14.2483 31.3513 16.8134 31.3513 19.9485C31.3513 23.0836 33.9164 25.6487 37.0515 25.6487Z" fill="#0F1729"/>
</svg>
