<svg width="72" height="72" viewBox="0 0 72 72" fill="none" xmlns="http://www.w3.org/2000/svg">
<rect width="72" height="72" transform="translate(0 0.000488281)" fill="#43B980"/>
<path d="M43.5945 48.8965H33.7597C33.1027 48.8965 32.573 49.4236 32.573 50.0774C32.573 50.7313 33.1027 51.2584 33.7597 51.2584H43.5945C44.2515 51.2584 44.7812 50.7313 44.7812 50.0774C44.7812 49.4236 44.2515 48.8965 43.5945 48.8965Z" fill="white"/>
<path d="M19.0661 38.8358H43.0038C43.6608 38.8358 44.1905 38.3087 44.1905 37.6548C44.1905 37.001 43.6608 36.4739 43.0038 36.4739H19.0661C18.4091 36.4739 17.8794 37.0061 17.8794 37.6548C17.8794 38.3036 18.4091 38.8358 19.0661 38.8358Z" fill="white"/>
<path d="M66.0449 21.8515L63.1673 20.8226L63.804 19.0588C64.0281 18.4455 63.7072 17.7664 63.0858 17.5434L59.4137 16.2306C59.1183 16.1242 58.7923 16.1394 58.5071 16.2763C58.2219 16.408 58.0029 16.6513 57.8959 16.9453L57.1472 19.0183L57.1065 19.0031C56.4902 18.7801 55.8077 19.0994 55.5887 19.7177L54.5294 22.6473C54.4224 22.9413 54.4377 23.2656 54.5701 23.5495C54.6261 23.6711 54.7076 23.7826 54.8044 23.8739L49.2682 39.1958V20.2803C49.2682 20.2803 49.2682 20.2651 49.2682 20.255C49.2682 20.184 49.2631 20.1131 49.2478 20.0472C49.2325 19.9813 49.2121 19.9154 49.1867 19.8495C49.1816 19.8292 49.1714 19.814 49.1612 19.7938C49.1408 19.7481 49.1154 19.7025 49.0899 19.6569C49.0797 19.6417 49.0695 19.6214 49.0594 19.6062C49.0186 19.5505 48.9779 19.4947 48.9269 19.444L40.7881 11.3447C40.7372 11.294 40.6812 11.2484 40.6251 11.2129C40.6099 11.2027 40.5946 11.1926 40.5742 11.1825C40.5284 11.1521 40.4825 11.1318 40.4316 11.1064C40.4163 11.0963 40.3959 11.0912 40.3807 11.0811C40.2482 11.0304 40.1107 11 39.9681 11C39.963 11 39.9528 11 39.9477 11H15.6586C14.1918 11 13 12.186 13 13.6457V54.4315C13 55.8912 14.1918 57.0772 15.6586 57.0772H45.5145L45.5451 57.4929C45.5807 57.9642 45.8965 58.3748 46.3447 58.5268C46.472 58.5674 46.5994 58.5876 46.7267 58.5876C47.0578 58.5876 47.3837 58.4508 47.6129 58.1923L51.3971 53.9754C51.3971 53.9754 51.3971 53.9754 51.4022 53.9754C51.6874 53.8436 51.9064 53.6003 52.0134 53.3063L61.7463 26.3625C62.1894 26.3168 62.5867 26.033 62.7497 25.587L63.5187 23.4633L64.1197 23.6762L60.9824 32.3635C60.6564 32.4801 60.3865 32.7284 60.2591 33.0781L58.8382 37.0113C58.6192 37.6245 58.9349 38.2986 59.5461 38.5217L59.9586 38.6737C60.0911 38.7193 60.2286 38.7447 60.3661 38.7447C60.5393 38.7447 60.7124 38.7092 60.8703 38.6332C61.1555 38.5014 61.3796 38.2581 61.4866 37.9641L66.7631 23.3619C66.9872 22.7487 66.6663 22.0695 66.0449 21.8465V21.8515ZM57.1931 22.2672L57.4223 21.6285L61.1759 22.9717L60.9467 23.6103L57.1931 22.2672ZM59.7295 18.8561L61.1657 19.368L60.9314 20.0218L59.4952 19.5099L59.7295 18.8561ZM47.6842 54.0615L47.6078 52.9819L48.7436 53.3874L48.0305 54.1832L47.6842 54.0615ZM41.1344 15.0396L43.1768 17.072L45.2191 19.1044H41.4197C41.2669 19.1044 41.1395 18.9777 41.1395 18.8257V15.0446L41.1344 15.0396ZM15.6586 54.7103C15.5058 54.7103 15.3785 54.5836 15.3785 54.4315V13.6457C15.3785 13.4937 15.5058 13.367 15.6586 13.367H38.761V18.8206C38.761 20.2803 39.9528 21.4663 41.4197 21.4663H46.8999V45.6226C46.8999 45.6631 46.9101 45.7037 46.9101 45.7442L45.0714 50.8278C44.9543 51.1472 44.9899 51.4817 45.1325 51.7655L45.3414 54.7204H15.6586V54.7103ZM50.1849 51.3955L48.9473 50.9546L47.7097 50.5136L56.9995 24.7912L59.4748 25.6782L50.1849 51.4006V51.3955Z" fill="white"/>
<path d="M19.0661 33.899H43.0038C43.6608 33.899 44.1905 33.3719 44.1905 32.7181C44.1905 32.0642 43.6608 31.5371 43.0038 31.5371H19.0661C18.4091 31.5371 17.8794 32.0642 17.8794 32.7181C17.8794 33.3719 18.4091 33.899 19.0661 33.899Z" fill="white"/>
<path d="M19.0661 28.9674H43.0038C43.6608 28.9674 44.1905 28.4402 44.1905 27.7864C44.1905 27.1326 43.6608 26.6055 43.0038 26.6055H19.0661C18.4091 26.6055 17.8794 27.1377 17.8794 27.7864C17.8794 28.4352 18.4091 28.9674 19.0661 28.9674Z" fill="white"/>
<path d="M19.3869 22.8902H32.3183C32.9754 22.8902 33.505 22.3631 33.505 21.7093C33.505 21.0554 32.9754 20.5283 32.3183 20.5283H19.3869C18.7299 20.5283 18.2002 21.0605 18.2002 21.7093C18.2002 22.358 18.7299 22.8902 19.3869 22.8902Z" fill="white"/>
<path d="M44.1905 42.5865C44.1905 41.9326 43.6608 41.4055 43.0038 41.4055H19.0661C18.4091 41.4055 17.8794 41.9326 17.8794 42.5865C17.8794 43.2403 18.4091 43.7674 19.0661 43.7674H43.0038C43.6608 43.7674 44.1905 43.2403 44.1905 42.5865Z" fill="white"/>
<path d="M57 20.5L59 17.5L61.5 18L62 19V21V23L61 24.5L51 53.5L47 56L46 52L55 26.5L57 20.5Z" fill="white"/>
</svg>
