<svg width="72" height="72" viewBox="0 0 72 72" fill="none" xmlns="http://www.w3.org/2000/svg">
<rect width="72.0007" height="72.0008" fill="#43B980"/>
<path d="M55.3245 25.7962C55.2905 25.7667 55.2662 25.7372 55.2273 25.7126L54.9161 25.4863C54.7557 25.3633 54.5904 25.2452 54.4203 25.1173C54.396 25.1025 54.3765 25.0927 54.3522 25.0779L36.8999 12.4337C36.8173 12.3746 36.7249 12.3254 36.6277 12.291C35.1596 11.7498 33.5407 11.9712 32.2913 12.8912L14.9557 25.6191C14.3043 26.0176 13.7404 26.4211 13.2834 26.8737C12.4764 27.6904 12.0097 28.6695 12.0097 30.0864L12 56.3097C12 58.5385 13.789 60.349 15.9912 60.349L54.0362 60.3638C56.2336 60.3638 58.0274 58.5532 58.0274 56.3294L58.0371 30.1061C58.0371 28.2365 57.0308 27.1148 55.3294 25.7962H55.3245ZM53.6279 57.9284H16.4141L33.6574 44.1624C34.0463 43.8475 34.5179 43.6852 35.0234 43.6852C35.3589 43.6852 35.7235 43.8278 36.0395 44.0788L53.623 57.9284H53.6279ZM14.3091 56.6886C14.2848 56.5656 14.2654 56.4426 14.2654 56.3147L14.2751 34.5045L30.0211 44.1427L14.3091 56.6886ZM55.7572 56.3294C55.7572 56.4475 55.7426 56.5607 55.7231 56.6738L55.2662 56.3097L39.9772 44.2657L55.762 34.5144L55.7523 56.3294H55.7572ZM33.6234 14.7411C34.2164 14.3082 35.004 14.1802 35.7137 14.3967L53.5696 27.3263C55.3585 28.6744 55.762 29.2156 55.762 30.1012V31.8182L38.0618 42.7553L37.4347 42.2584C36.7249 41.6975 35.8742 41.3875 35.038 41.3777C35.038 41.3777 35.0089 41.3777 35.004 41.3777C34.0123 41.3777 33.0303 41.7221 32.2476 42.3519L31.9219 42.6126L14.28 31.8182V30.0913C14.28 29.4862 14.3578 29.0434 14.8633 28.5268L33.6234 14.7411Z" fill="white"/>
<path d="M34.202 39.4933C36.1854 39.4933 37.7265 39.1439 39.1995 38.3567C39.2627 38.3223 39.287 38.2485 39.2627 38.1845L38.8203 36.9792C38.8057 36.9398 38.7765 36.9103 38.7376 36.8955C38.6988 36.8808 38.655 36.8857 38.621 36.9054C37.5077 37.5351 36.0882 37.8697 34.5034 37.8697C30.3226 37.8697 27.5176 34.8833 27.5176 30.4356C27.5176 25.1172 30.9595 21.2599 35.6944 21.2599C39.7488 21.2599 42.267 23.8823 42.267 28.1036C42.267 31.1884 40.7989 33.0973 39.4425 33.0973H39.4182C39.1606 33.0875 38.9661 32.9989 38.8251 32.8169C38.4897 32.3888 38.4508 31.4836 38.7182 30.1208L39.6613 25.0434C39.671 24.9794 39.6419 24.9154 39.5835 24.8909C38.7619 24.5071 37.6633 24.2906 36.5598 24.2906C32.8602 24.2906 29.8511 27.3361 29.8511 31.0801C29.8511 33.4958 31.4261 34.7553 32.9866 34.7553C34.5471 34.7553 35.884 34.0026 36.866 32.4626C36.8903 33.1416 37.0994 33.7074 37.4785 34.1108C37.8723 34.529 38.4314 34.7553 39.0585 34.7553C41.5815 34.7553 44.1338 32.4134 44.1338 27.9363C44.1338 23.0803 40.76 19.6855 35.9278 19.6855C30.0795 19.6855 25.6703 24.3792 25.6703 30.6029C25.6703 36.4429 29.9677 39.4982 34.2117 39.4982L34.202 39.4933ZM36.8952 29.2548C36.5889 31.0014 35.1354 32.9546 33.6478 32.9546C32.588 32.9546 31.956 32.2117 31.956 30.9621C31.956 28.3004 33.9103 26.052 36.2243 26.052C36.657 26.052 37.0702 26.1061 37.4494 26.2094L36.8903 29.2548H36.8952Z" fill="white"/>
<path d="M31 44.5L13 33C12.8333 40.3333 12.5 55.1 12.5 55.5C12.5 55.9 13.6666 58.3333 14.2499 59.5H54.5L56.5 57V33L38 44L34.5 42.5L31 44.5Z" fill="white"/>
</svg>
