<svg width="60" height="60" viewBox="0 0 60 60" fill="none" xmlns="http://www.w3.org/2000/svg">
<path d="M54.0001 19.3332C55.4146 19.3332 56.7711 19.8951 57.7713 20.8953C58.7715 21.8955 59.3334 23.2521 59.3334 24.6666V35.3332C59.3334 36.7477 58.7715 38.1043 57.7713 39.1045C56.7711 40.1047 55.4146 40.6666 54.0001 40.6666H51.1681C50.518 45.822 48.0088 50.563 44.1114 53.9999C40.214 57.4367 35.1964 59.3331 30.0001 59.3332V53.9999C34.2435 53.9999 38.3132 52.3142 41.3138 49.3136C44.3144 46.313 46.0001 42.2434 46.0001 37.9999V21.9999C46.0001 17.7564 44.3144 13.6868 41.3138 10.6862C38.3132 7.68561 34.2435 5.9999 30.0001 5.9999C25.7566 5.9999 21.687 7.68561 18.6864 10.6862C15.6858 13.6868 14.0001 17.7564 14.0001 21.9999V40.6666H6.00008C4.58559 40.6666 3.22904 40.1047 2.22885 39.1045C1.22865 38.1043 0.666748 36.7477 0.666748 35.3332V24.6666C0.666748 23.2521 1.22865 21.8955 2.22885 20.8953C3.22904 19.8951 4.58559 19.3332 6.00008 19.3332H8.83208C9.48283 14.1783 11.9923 9.43796 15.8896 6.0017C19.7869 2.56544 24.8042 0.669434 30.0001 0.669434C35.1959 0.669434 40.2132 2.56544 44.1105 6.0017C48.0079 9.43796 50.5173 14.1783 51.1681 19.3332H54.0001ZM18.6934 40.0932L21.5201 35.5706C24.0616 37.1627 27.0011 38.0047 30.0001 37.9999C32.9991 38.0047 35.9385 37.1627 38.4801 35.5706L41.3067 40.0932C37.9181 42.2163 33.9989 43.3394 30.0001 43.3332C26.0013 43.3394 22.0821 42.2163 18.6934 40.0932Z" fill="#181818"/>
</svg>
